<?xml version="1.0" encoding="iso-8859-1"?>
<!-- Uploaded to: SVG Repo, www.svgrepo.com, Generator: SVG Repo Mixer Tools -->
<svg version="1.1" id="Layer_1" xmlns="http://www.w3.org/2000/svg" xmlns:xlink="http://www.w3.org/1999/xlink" 
	 viewBox="0 0 512 512" xml:space="preserve">
<polygon style="fill:#7E8488;" points="443.168,85.347 366.1,85.347 366.1,8.277 "/>
<path style="fill:#AFB6BB;" d="M256.001,360.594c148.633-55.049,0-225.703,0-225.703S107.367,305.544,256.001,360.594z
	 M68.833,503.723V8.277H366.1v77.069h77.07v418.376H68.833V503.723z"/>
<path style="fill:#15E3A6;" d="M256.001,360.594c-148.633-55.049,0-225.703,0-225.703S404.634,305.544,256.001,360.594z"/>
<path style="fill:#9CA2A7;" d="M309.851,321.265c-10.092,15.731-27.096,29.419-53.85,39.329
	c-77.141-28.571-74.163-88.259-53.494-139.09c-45.548-60.403-75.035-133.57-82.297-213.227H68.833v495.446h374.337v-126.22
	C395.02,366.516,350.068,347.26,309.851,321.265z"/>
<path d="M369.528,0H60.554v512h233.977v-16.554H77.109V16.554h280.712v77.07h77.07v401.821H322.065V512h129.381V81.919L369.528,0z
	 M374.377,28.261l48.809,48.81h-48.809V28.261z"/>
<path d="M253.126,368.356l2.875,1.065l2.875-1.065c37.754-13.983,60.83-36.487,68.585-66.884
	c18.948-74.276-61.772-168.06-65.218-172.015l-6.242-7.166l-6.242,7.166c-0.748,0.86-18.539,21.394-35.865,50.774l14.26,8.409
	c10.455-17.729,21.268-32.297,27.838-40.648c18.251,23.259,69.384,94.753,55.421,149.411c-5.571,21.81-21.406,38.862-47.135,50.803
	v-28.222l25.1-25.099l-11.705-11.706l-13.395,13.395v-31.638l25.1-25.1l-11.705-11.706l-13.395,13.395v-35.067h-16.554v35.067
	l-13.395-13.396l-11.705,11.706l25.101,25.1v31.638l-13.395-13.395l-11.705,11.706l25.101,25.1v28.2
	c-22.592-10.486-37.594-24.887-44.625-42.942c-12.603-32.372,1.843-72.526,16.182-100.511l-14.733-7.549
	c-23.108,45.099-28.786,83.477-16.876,114.066C197.595,336.73,219.617,355.945,253.126,368.356z"/>
<rect x="101.866" y="38.534" style="fill:#FFFFFF;" width="60.554" height="16.554"/>
<rect x="178.932" y="38.534" width="27.525" height="16.554"/>
<rect x="101.866" y="71.565" width="132.115" height="16.554"/>
<g>
	<rect x="101.866" y="456.913" style="fill:#FFFFFF;" width="27.525" height="16.554"/>
	<rect x="129.39" y="434.896" style="fill:#FFFFFF;" width="27.525" height="16.554"/>
</g>
</svg>