<?xml version="1.0" encoding="iso-8859-1"?>
<!-- Uploaded to: SVG Repo, www.svgrepo.com, Generator: SVG Repo Mixer Tools -->
<svg height="800px" width="800px" version="1.1" id="Layer_1" xmlns="http://www.w3.org/2000/svg" xmlns:xlink="http://www.w3.org/1999/xlink" 
	 viewBox="0 0 512 512" xml:space="preserve">
<g>
	<path style="fill:#ECF0F1;" d="M442.325,238.345h52.021V220.69c0-19.5-15.81-35.31-35.31-35.31H52.966
		c-19.5,0-35.31,15.81-35.31,35.31v17.655h52.021c8.792,0,16.949,6.012,18.353,14.689c1.801,11.061-6.691,20.621-17.408,20.621
		H17.656C17.656,405.292,124.364,512,256.001,512s238.345-106.708,238.345-238.345H441.38c-10.726,0-19.218-9.56-17.417-20.621
		C425.376,244.356,433.532,238.345,442.325,238.345"/>
	<g>
		<path style="fill:#BDC3C7;" d="M489.181,323.087c-12.447-3.346-25.468-5.297-38.974-5.297
			c-82.882,0-150.069,67.187-150.069,150.069c0,13.506,1.951,26.527,5.297,38.974C397.391,487.439,469.778,415.044,489.181,323.087"
			/>
		<path style="fill:#BDC3C7;" d="M61.793,317.793c-13.506,0-26.527,1.951-38.974,5.297
			c19.403,91.957,91.789,164.343,183.746,183.746c3.346-12.447,5.297-25.468,5.297-38.974
			C211.862,384.98,144.675,317.793,61.793,317.793"/>
	</g>
	<g>
		<path style="fill:#90CED6;" d="M70.621,273.655H17.655C7.901,273.655,0,265.754,0,256s7.901-17.655,17.655-17.655h52.966
			c9.754,0,17.655,7.901,17.655,17.655S80.375,273.655,70.621,273.655"/>
		<path style="fill:#90CED6;" d="M494.345,273.655h-52.966c-9.754,0-17.655-7.901-17.655-17.655s7.901-17.655,17.655-17.655h52.966
			c9.754,0,17.655,7.901,17.655,17.655S504.099,273.655,494.345,273.655"/>
	</g>
	<polygon style="fill:#F18D46;" points="450.207,0 476.69,26.483 450.207,52.966 423.724,26.483 	"/>
	<path style="fill:#F0C419;" d="M176.552,26.483c0,19.518-15.793,35.31-35.31,35.31c19.518,0,35.31,15.793,35.31,35.31
		c0-19.518,15.793-35.31,35.31-35.31C192.344,61.793,176.552,46.001,176.552,26.483"/>
	<g>
		<path style="fill:#DF4D60;" d="M353.103,132.414c-4.882,0-8.828-3.955-8.828-8.828v-35.31c0-4.873,3.946-8.828,8.828-8.828
			c4.882,0,8.828,3.955,8.828,8.828v35.31C361.931,128.459,357.985,132.414,353.103,132.414"/>
		<path style="fill:#DF4D60;" d="M370.759,114.759h-35.31c-4.882,0-8.828-3.955-8.828-8.828s3.946-8.828,8.828-8.828h35.31
			c4.882,0,8.828,3.955,8.828,8.828S375.64,114.759,370.759,114.759"/>
	</g>
	<path style="fill:#A4E869;" d="M105.931,123.586c0,4.873-3.955,8.828-8.828,8.828s-8.828-3.955-8.828-8.828
		c0-4.873,3.955-8.828,8.828-8.828S105.931,118.713,105.931,123.586"/>
	<path style="fill:#C03A2B;" d="M35.31,35.31c0,4.873-3.955,8.828-8.828,8.828s-8.828-3.955-8.828-8.828s3.955-8.828,8.828-8.828
		S35.31,30.438,35.31,35.31"/>
	<g>
		<path style="fill:#46B29D;" d="M79.448,220.69c4.882,0,8.828-3.955,8.828-8.828v-26.483H70.621v26.483
			C70.621,216.735,74.567,220.69,79.448,220.69"/>
		<path style="fill:#46B29D;" d="M123.586,220.69c4.882,0,8.828-3.955,8.828-8.828v-26.483h-17.655v26.483
			C114.759,216.735,118.705,220.69,123.586,220.69"/>
		<path style="fill:#46B29D;" d="M167.724,220.69c4.882,0,8.828-3.955,8.828-8.828v-26.483h-17.655v26.483
			C158.897,216.735,162.842,220.69,167.724,220.69"/>
		<path style="fill:#46B29D;" d="M211.862,220.69c4.882,0,8.828-3.955,8.828-8.828v-26.483h-17.655v26.483
			C203.034,216.735,206.98,220.69,211.862,220.69"/>
		<path style="fill:#46B29D;" d="M256,220.69c4.882,0,8.828-3.955,8.828-8.828v-26.483h-17.655v26.483
			C247.172,216.735,251.118,220.69,256,220.69"/>
		<path style="fill:#46B29D;" d="M300.138,220.69c4.882,0,8.828-3.955,8.828-8.828v-26.483H291.31v26.483
			C291.31,216.735,295.256,220.69,300.138,220.69"/>
		<path style="fill:#46B29D;" d="M344.276,220.69c4.882,0,8.828-3.955,8.828-8.828v-26.483h-17.655v26.483
			C335.448,216.735,339.394,220.69,344.276,220.69"/>
		<path style="fill:#46B29D;" d="M388.414,220.69c4.882,0,8.828-3.955,8.828-8.828v-26.483h-17.655v26.483
			C379.586,216.735,383.532,220.69,388.414,220.69"/>
		<path style="fill:#46B29D;" d="M432.552,220.69c4.882,0,8.828-3.955,8.828-8.828v-26.483h-17.655v26.483
			C423.724,216.735,427.67,220.69,432.552,220.69"/>
	</g>
</g>
</svg>