<?xml version="1.0" encoding="iso-8859-1"?>
<!-- Uploaded to: SVG Repo, www.svgrepo.com, Generator: SVG Repo Mixer Tools -->
<svg height="800px" width="800px" version="1.1" id="Layer_1" xmlns="http://www.w3.org/2000/svg" xmlns:xlink="http://www.w3.org/1999/xlink" 
	 viewBox="0 0 511.844 511.844" xml:space="preserve">
<path style="fill:#434A54;" d="M332.086,202.595c0-11.778,9.544-21.322,21.322-21.322h137.114c11.778,0,21.322,9.544,21.322,21.322
	v106.64c0,11.777-9.544,21.321-21.322,21.321H353.408c-11.778,0-21.322-9.544-21.322-21.321V202.595z"/>
<path style="fill:#FECD57;" d="M469.185,362.546c0,11.778-9.544,21.337-21.321,21.337H21.321C9.544,383.883,0,374.324,0,362.546
	V149.282c0-11.777,9.544-21.321,21.321-21.321h426.542c11.777,0,21.321,9.544,21.321,21.321v213.264H469.185z"/>
<g style="opacity:0.1;">
	<path d="M447.863,362.546H21.321C9.544,362.546,0,353.002,0,341.225v21.321c0,11.778,9.544,21.337,21.321,21.337h426.542
		c11.777,0,21.321-9.559,21.321-21.337v-21.321C469.185,353.002,459.641,362.546,447.863,362.546z"/>
	<path d="M490.522,309.234h-21.337v21.321h21.337c11.778,0,21.322-9.544,21.322-21.321v-21.322
		C511.844,299.69,502.3,309.234,490.522,309.234z"/>
</g>
<g>
	<path style="fill:#434A54;" d="M306.078,216.027c-0.516-1.14-1.234-2.218-2.171-3.155c-4.155-4.17-10.919-4.17-15.073-0.016
		c-3.203,3.202-3.938,7.92-2.234,11.81c9.919,19.947,6.561,44.861-10.027,61.45c-13.074,13.09-31.319,17.916-48.22,14.542
		c2.718-3.045,3.577-7.514,1.781-11.48c-2.406-5.373-8.716-7.779-14.09-5.357l-19.447,8.747c-4.702,2.108-7.123,7.2-6.045,12.043
		c0.156,0.688,0.375,1.374,0.688,2.046l8.732,19.463c2.421,5.357,8.731,7.764,14.105,5.342c4.28-1.92,6.654-6.311,6.232-10.746
		c24.711,6.326,51.999-0.172,71.337-19.51C314.701,278.166,319.481,243.817,306.078,216.027z"/>
	<path style="fill:#434A54;" d="M192.629,204.391c13.074-13.074,31.303-17.916,48.204-14.542c-2.718,3.046-3.562,7.528-1.781,11.48
		c2.406,5.373,8.716,7.779,14.089,5.357l19.462-8.731c1.219-0.547,2.266-1.312,3.156-2.202c3.045-3.046,4.061-7.748,2.202-11.902
		l-8.747-19.447c-2.422-5.374-8.732-7.779-14.105-5.358c-4.28,1.922-6.654,6.311-6.232,10.747c-24.696-6.311-52,0.188-71.337,19.51
		c-23.04,23.056-27.82,57.389-14.433,85.177c0.515,1.156,1.234,2.219,2.171,3.172c4.171,4.154,10.918,4.154,15.089,0
		c3.187-3.203,3.92-7.904,2.218-11.81C172.682,245.894,176.024,220.98,192.629,204.391z"/>
</g>
</svg>